<?xml version="1.0" encoding="utf-8"?>
<!-- Svg Vector Icons : http://www.onlinewebfonts.com/icon -->
<!DOCTYPE svg PUBLIC "-//W3C//DTD SVG 1.1//EN" "http://www.w3.org/Graphics/SVG/1.1/DTD/svg11.dtd">
<svg version="1.1" xmlns="http://www.w3.org/2000/svg" xmlns:xlink="http://www.w3.org/1999/xlink" x="0px" y="0px" viewBox="0 0 256 256" enable-background="new 0 0 256 256" xml:space="preserve">
<metadata> Svg Vector Icons : http://www.onlinewebfonts.com/icon </metadata>
<g><g><g><path fill="#000000" d="M81.6,6c-1.3,1.4-2.4,3.9-2.4,5.5c0,3.9,4.4,8.2,8.3,8.2c7,0,14.3,9,9.5,11.6c-6,3.4-14.6,21.2-14.6,30c0,3.2-0.5,3.7-8.3,7.6c-29.4,14.5-51.7,39.9-61,69.4c-3,9.6-4.1,28-2.2,36.4c3.4,14.4,11,24.8,21.9,29.7c5.8,2.7,8.6,3.1,18.7,3.6c6.6,0.2,14-0.1,16.5-0.6c4.4-1,4.5-1,5.7,2.4c3.9,11,18,28.8,28.2,35.3c15.5,10,35.1,10.1,51,0.4c10.7-6.5,25.1-24.2,29.1-35.7c1.2-3.4,1.3-3.4,5.7-2.4c2.5,0.5,10,0.9,16.5,0.6c10.2-0.4,12.9-0.9,18.7-3.6c19.4-8.8,27.6-33.9,20.4-62.5c-4.5-17.8-14.6-35.3-28.7-49.4c-10.2-10.3-19.3-16.9-31.7-23.1c-9-4.4-9.5-4.9-9.5-8.1c0-8.9-7.4-24.3-14.3-29.8c-1.5-1.2-1.9-2.4-1.5-4c1.1-3.5,6.9-7.8,10.3-7.8c4.8,0,8.8-3.8,8.8-8.2c0-5.4-3.1-8-9.4-8c-9.2,0-21.2,7.7-23.6,15.1c-0.8,2.6-1.3,2.7-9.5,1.2c-4.4-0.9-8-0.9-12.9,0c-6.6,1.2-6.8,1.2-8.4-1.2C106.6,9.1,97.7,3.5,88.8,3.5C85.1,3.5,83.3,4,81.6,6z M137.8,37.6c6.7,2.4,11.4,6.4,15.1,12.8c3.7,6.5,4.2,9.9,1.4,9c-4.4-1.4-17.8-2.8-26.3-2.8c-8.6,0-21.9,1.4-26.2,2.8c-2.9,0.9-2.4-2.5,1.3-9c5.3-9.3,13.8-14.2,24.5-14.3C130.5,36,135.2,36.7,137.8,37.6z M119.1,102.2c-0.5,31.9-1.7,38.8-9,53.4c-7.7,15.6-21,27.7-36.4,32.9c-15.1,5.1-32.7,3.9-39.1-2.8c-7.8-8.1-10.3-23-6.4-38.2c6.8-27.1,26.1-50.4,52.4-63.4C90.9,79.1,108,74,115.3,73.9h4.2L119.1,102.2z M154.6,76.6c36.1,9,64.4,36.6,73.1,70.9c3.9,15.2,1.4,30.1-6.4,38.2c-5.8,6.2-19.6,7.8-34.3,4c-23.3-6-40-23.5-47.3-49.8c-2-7-2.3-12-2.7-37.1l-0.5-28.9h3.8C142.2,73.9,148.7,75,154.6,76.6z M131.3,164c1.3,2.6,3.4,6.1,4.4,7.7c1.2,1.7,1.9,3.2,1.6,3.6c-0.2,0.3-4.5,0.4-9.6,0.2l-9.1-0.3l4.2-7.9c2.3-4.2,4.7-7.8,5.2-7.8C128.6,159.4,130,161.5,131.3,164z M137.4,192.4c12-0.4,17.7-0.2,18.2,0.5c0.4,0.6,3.4,2.6,6.5,4.4c5.4,3,5.7,3.5,4.7,5.8c-0.9,1.9-2.5,2.8-7.8,3.8c-10.7,2-39.9,2.6-52.6,1.2c-14.9-1.7-15.8-1.9-17.1-5.1c-1.2-2.4-0.9-2.7,2.8-4.7c2.2-1.2,5.5-3.2,7.5-4.7c3.2-2.5,3.9-2.6,11.9-1.6C116,192.8,127.7,192.9,137.4,192.4z M119.3,225.9c5.6,0.3,15.2,0.2,21.1-0.3c6-0.4,11-0.6,11.3-0.4c0.8,0.5-4.7,4.7-10.2,7.6c-4.4,2.5-6.8,3-13.5,3c-6.9,0-8.9-0.4-13.8-3.1c-3.1-1.7-6.7-4.3-8.1-5.7l-2.5-2.7l2.7,0.7C107.8,225,113.6,225.6,119.3,225.9z"/></g></g></g>
</svg>